<svg id="Capa_1" enable-background="new 0 0 497 497" height="512" viewBox="0 0 497 497" width="512" xmlns="http://www.w3.org/2000/svg"><g><g><g><g><ellipse cx="180.191" cy="83.588" fill="#ffb357" rx="45" ry="70" transform="matrix(.924 -.383 .383 .924 -18.271 75.319)"/><ellipse cx="316.809" cy="413.413" fill="#fce3a0" rx="45" ry="70" transform="matrix(.924 -.383 .383 .924 -134.091 152.707)"/></g><g><ellipse cx="413.413" cy="180.191" fill="#fce3a0" rx="70" ry="45" transform="matrix(.924 -.383 .383 .924 -37.487 171.922)"/><ellipse cx="83.588" cy="316.809" fill="#ffb357" rx="70" ry="45" transform="matrix(.924 -.383 .383 .924 -114.875 56.103)"/></g><g><ellipse cx="316.809" cy="83.588" fill="#fce3a0" rx="70" ry="45" transform="matrix(.383 -.924 .924 .383 118.347 344.293)"/><ellipse cx="180.191" cy="413.413" fill="#ffb357" rx="70" ry="45" transform="matrix(.383 -.924 .924 .383 -270.708 421.681)"/></g><g><ellipse cx="413.413" cy="316.809" fill="#fce3a0" rx="45" ry="70" transform="matrix(.383 -.924 .924 .383 -37.487 577.515)"/><ellipse cx="83.588" cy="180.191" fill="#ffb357" rx="45" ry="70" transform="matrix(.383 -.924 .924 .383 -114.875 188.46)"/></g></g><g fill="#ffce71"><g><ellipse cx="248.5" cy="70" rx="45" ry="70"/><ellipse cx="248.5" cy="427" rx="45" ry="70"/></g><g><ellipse cx="427" cy="248.5" rx="70" ry="45"/><ellipse cx="70" cy="248.5" rx="70" ry="45"/></g><g><ellipse cx="374.719" cy="122.281" rx="70" ry="45" transform="matrix(.707 -.707 .707 .707 23.287 300.781)"/><ellipse cx="122.281" cy="374.719" rx="70" ry="45" transform="matrix(.707 -.707 .707 .707 -229.151 196.219)"/></g><g><ellipse cx="374.719" cy="374.719" rx="45" ry="70" transform="matrix(.707 -.707 .707 .707 -155.214 374.719)"/><ellipse cx="122.281" cy="122.281" rx="45" ry="70" transform="matrix(.707 -.707 .707 .707 -50.651 122.281)"/></g></g><g><g><path d="m356.513 366.432c31.932-29.272 51.987-71.302 51.987-117.932 0-42.363-16.553-80.931-43.531-109.582l-216.778 47.652-51.489 11.318 140.166 210.188c.04.003.079.004.118.007" fill="#b9f0ff"/><path d="m175.435 252.84-27.245-66.27-51.489 11.318c-5.319 15.915-8.201 32.932-8.201 50.612 0 83.505 64.511 153.354 148.486 159.584l6.143-28.806c-39.896-28.201-66.315-74.198-67.694-126.438z" fill="#7ce3ff"/></g><g><path d="m291.934 94.513-116.554 20.285v137.987l.055.056c6.531-1.096 12.792 3.229 13.992 9.814l5.779 31.699c3.14 17.22 13.348 32.337 28.146 41.684 16.792 10.606 33.666 9.759 33.513 9.675-.033 0-.064-.006-.098-.006.066 0 .091.002.098.006 4.893.065 8.237 4.998 6.454 9.576-6.328 16.246-18.993 23.07-20.141 23.945v23.297h48.636c24.239-6.83 46.347-19.277 64.698-36.1.661-1.99 1-4.08 1.006-6.177.042-15.149.017-24.2-11.103-34.755-6.463-6.134-15.116-9.422-24.026-9.422h-60.889c-5.374 0-9.985-3.261-11.965-7.912-.671-2.205-1.035-4.543-1.035-6.967v-.005c0-9.389-7.611-17-17-17l18.682-18.683c6.65-6.65 1.94-18.021-7.464-18.021 0-12.582 10.2-22.781 22.781-22.781h20.776c3.606 0 7.065 1.432 9.615 3.982l13.519 13.519c.235.235.477.459.725.674 7.221 6.254 18.503.713 18.503-8.84v-20.746c0-8.647 7.009-15.656 15.656-15.656.074-.007.148-.013.222-.02 11.646-1.091 20.455-11.049 20.455-22.746v-35.96c-19.772-20.995-44.952-36.462-73.036-44.402z" fill="#30cd9c"/><g fill="#0caf7b"><path d="m291.815 402.531c-17.658-4.985-34.075-12.926-48.686-23.254-3.67 2.824-5.908 7.162-6.024 11.84-.03 1.195-.076 8.444-.119 16.966 18.979 1.358 37.451-.655 54.829-5.552z"/><path d="m133 221.221v31.764c0 7.67 1.443 15.271 4.252 22.408l11.475 29.143c2.688 6.828 10.184 10.431 17.195 8.266 7.592-2.668 11.584-10.986 8.916-18.578l-8.787-25.004c-2.439-6.941 1.469-15.017 9.329-16.374.018-.003.037-.003.055-.007-.038-1.429-.059-2.863-.059-4.302 0-73.308 49.303-135.096 116.557-154.025-13.87-3.921-28.445-6.016-43.434-6.016-70.544 0-130.572 45.894-151.798 109.391h12.966c12.887.002 23.333 10.448 23.333 23.334z"/></g></g></g></g><g><g><g><g><ellipse cx="190.133" cy="193.465" fill="#ff8e9e" rx="24.633" ry="19.616"/></g><g><ellipse cx="306.867" cy="193.465" fill="#ff8e9e" rx="24.633" ry="19.616"/></g></g></g><g fill="#313d40"><path d="m204.488 157.012c-4.142 0-7.5 3.357-7.5 7.5v10.069c0 4.143 3.358 7.5 7.5 7.5s7.5-3.357 7.5-7.5v-10.069c0-4.143-3.358-7.5-7.5-7.5z"/><path d="m292.512 157.012c-4.142 0-7.5 3.357-7.5 7.5v10.069c0 4.143 3.358 7.5 7.5 7.5s7.5-3.357 7.5-7.5v-10.069c0-4.143-3.358-7.5-7.5-7.5z"/><path d="m267.244 168.628c-3.123-2.721-7.861-2.396-10.582.727-4.324 4.962-12.004 4.957-16.324 0-2.722-3.122-7.459-3.447-10.582-.727-3.123 2.722-3.448 7.459-.726 10.582 10.301 11.82 28.647 11.81 38.939 0 2.722-3.123 2.397-7.86-.725-10.582z"/></g></g></g></svg>