<svg id="Capa_1" enable-background="new 0 0 497 497" height="512" viewBox="0 0 497 497" width="512" xmlns="http://www.w3.org/2000/svg"><g><g><path d="m383.383 30.226c-1.761-15.501-14.091-27.816-29.613-29.575-29.72-3.367-60.636 6.319-83.431 29.084-11.468 11.453-19.607 24.963-24.449 39.338v67.871h50.987c21.3 0 41.934-8.102 57.062-23.077.107-.106.214-.213.321-.32 22.795-22.765 32.494-53.641 29.123-83.321z" fill="#70dcba"/><path d="m245.891 69.076v-.002c-4.459-10.421-10.932-20.188-19.449-28.694-20.532-20.505-48.378-29.23-75.147-26.197-13.98 1.584-25.087 12.676-26.672 26.638-3.036 26.734 5.699 54.545 26.231 75.05.096.095.193.192.29.287 13.625 13.488 32.211 20.786 51.396 20.786h9.009c16.004 0 28.978 12.974 28.978 28.978v14.534l13.699 10 13.675-10v-14.534c0-16.004 12.974-28.978 28.978-28.978-30.206-8.756-50.988-36.42-50.988-67.868z" fill="#30cd9c"/><path d="m357.635 32.576c-1.239-3.952-5.445-6.15-9.4-4.914-42.377 13.281-78.166 40.608-102.036 77.608-18.383-30.417-47.648-53.136-82.029-63.228-3.974-1.168-8.142 1.109-9.309 5.084s1.109 8.142 5.084 9.309c34.661 10.175 63.523 34.68 79.186 67.231.009.02.022.036.032.055 2.649 5.404 10.346 5.629 13.298.307 21.695-39.449 57.301-68.59 100.259-82.053 3.954-1.238 6.154-5.446 4.915-9.399z" fill="#0caf7b"/></g><g><g><g><g><path d="m408.135 326.145c-.69-10.3-2.371-20.326-4.919-30l-85.424-103.365c-11.955-5.754-24.848-10.164-38.727-12.85-.033-.007-.067-.012-.1-.019l-138.257 50.667v224.205l138.268 39.305c12.149-2.278 25.371-6.489 37.84-12.386z" fill="#b9f0ff"/><path d="m183.816 336.997c0-6.533.364-12.98 1.053-19.33l-96.323 15.521c-.64 27.521 5.664 54.318 18.381 78.403l61.815 64.141c23.48 13.528 50.715 21.268 79.758 21.268 10.423 0 20.608-1.009 30.475-2.912-56.558-29.598-95.159-88.832-95.159-157.091z" fill="#7ce3ff"/></g><g fill="#30cd9c"><path d="m203.182 314.372 10.342 4.527c3.861 1.69 6.823 4.83 8.624 8.641 2.104 4.451 6.733 7.476 12.039 7.226 6.624-.312 12.023-6.344 12.023-12.976v-31.386c0-17.948 5.758-35.424 16.428-49.856l.001-.002c10.67-14.432 16.428-31.908 16.428-49.856v-10.76c-.033-.007-.067-.012-.1-.018l-94.095 34.483v103.273c4.864-4.701 12.094-6.018 18.31-3.296z"/><path d="m408.135 326.146c-36.382-.001-85.256-.002-88.226-.002-22.916 0-41.523 18.592-41.522 41.522v16.28c0 14.036 5.576 27.496 15.5 37.42 9.641 9.642 15.334 22.447 15.512 37.884.098 8.375 2.834 16.119 7.414 22.451 54.19-25.625 91.684-80.776 91.683-144.7.002-3.648-.12-7.268-.361-10.855z"/><path d="m324.373 236.852 8.964 7.534c5.617 4.672 7.743 12.336 5.244 19.202-1.353 3.717-4.022 6.615-7.369 8.377-4.243 2.234-7.048 6.474-7.048 11.269v.002c0 7.13 5.78 12.91 12.91 12.91l66.144.001c-11.985-45.497-43.514-83.195-85.424-103.366-.011 9.579-.007 23.029.093 26.123.303 9.387 2.122 14.271 6.486 17.948z"/></g><path d="m167.851 384.485c-7.912-7.912-14.908-13.154-14.908-24.908 0-6.404 2.544-12.543 7.071-17.071l23.932-23.932.709-.708c.057-.058.12-.108.178-.165.012-.012.025-.022.037-.033 6.509-59.99 42.956-110.989 94.095-137.756-97.813-18.865-188.12 54.89-190.418 153.277l36.93 36.922c6.333 6.333 6.333 16.601 0 22.933l-18.549 18.549c14.137 26.774 35.636 49.058 61.815 64.141 24.527-25.508 24.254-66.102-.892-91.249z" fill="#0caf7b"/></g><g fill="#313d40"><path d="m180.904 348.634c-4.141.001-7.499 3.359-7.5 7.5v12c0 4.143 3.358 7.5 7.501 7.5 4.143-.001 7.499-3.358 7.5-7.5v-12c-.001-4.143-3.358-7.5-7.501-7.5z"/><path d="m305.801 348.633c-4.141 0-7.499 3.359-7.5 7.5v12c0 4.143 3.358 7.5 7.501 7.5 4.143-.001 7.499-3.358 7.5-7.5v-12c0-4.142-3.358-7.499-7.501-7.5z"/><path d="m264.744 362.121c-3.122-2.721-7.857-2.395-10.582.728-5.749 6.582-15.911 6.551-21.619 0-2.721-3.122-7.458-3.448-10.581-.727-3.128 2.722-3.449 7.458-.727 10.582 11.667 13.387 32.492 13.458 44.237-.001 2.721-3.123 2.396-7.86-.728-10.582z"/></g></g></g></g></svg>